<svg xmlns="http://www.w3.org/2000/svg" xmlns:xlink="http://www.w3.org/1999/xlink" xmlns:a="http://ns.adobe.com/AdobeSVGViewerExtensions/3.0/" version="1.1" x="0px" y="0px" width="36px" height="9px" viewBox="0 0 36 9" overflow="visible" enable-background="new 0 0 36 9" xml:space="preserve"><defs></defs><rect x="6.5" y="0" transform="matrix(-0.7071 0.7071 -0.7071 -0.7071 17.6211 1.9238)" fill="#E24F46" width="3.8" height="9.2"/><rect x="2.7" y="0" transform="matrix(-0.7071 -0.7071 0.7071 -0.7071 4.6117 11.1319)" fill="#E24F46" width="3.8" height="9.2"/><rect x="14.1" y="0" transform="matrix(-0.7071 0.7071 -0.7071 -0.7071 30.6378 -3.4679)" fill="#E24F46" width="3.8" height="9.2"/><rect x="10.3" y="0" transform="matrix(-0.7071 -0.7071 0.7071 -0.7071 17.6284 16.5236)" fill="#E24F46" width="3.8" height="9.2"/><rect x="21.7" y="0" transform="matrix(-0.7071 0.7071 -0.7071 -0.7071 43.6544 -8.8596)" fill="#E24F46" width="3.8" height="9.2"/><rect x="17.9" y="0" transform="matrix(-0.7071 -0.7071 0.7071 -0.7071 30.6451 21.9153)" fill="#E24F46" width="3.8" height="9.2"/><rect x="29.4" y="0" transform="matrix(-0.7071 0.7071 -0.7071 -0.7071 56.6711 -14.2513)" fill="#E24F46" width="3.8" height="9.2"/><rect x="25.6" y="0" transform="matrix(-0.7071 -0.7071 0.7071 -0.7071 43.6617 27.307)" fill="#E24F46" width="3.8" height="9.2"/></svg>