<svg xmlns="http://www.w3.org/2000/svg" xmlns:xlink="http://www.w3.org/1999/xlink" xmlns:a="http://ns.adobe.com/AdobeSVGViewerExtensions/3.0/" version="1.1" x="0px" y="0px" width="82px" height="9px" viewBox="0 0 82 9" overflow="visible" enable-background="new 0 0 82 9" xml:space="preserve"><defs></defs><rect x="6.5" y="0" transform="matrix(-0.7071 0.7071 -0.7071 -0.7071 17.6214 1.9246)" fill="#E24F46" width="3.8" height="9.2"/><rect x="2.7" y="0" transform="matrix(-0.7071 -0.7071 0.7071 -0.7071 4.6113 11.1327)" fill="#E24F46" width="3.8" height="9.2"/><rect x="14.1" y="0" transform="matrix(-0.7071 0.7071 -0.7071 -0.7071 30.6381 -3.4671)" fill="#E24F46" width="3.8" height="9.2"/><rect x="10.3" y="0" transform="matrix(-0.7071 -0.7071 0.7071 -0.7071 17.628 16.5244)" fill="#E24F46" width="3.8" height="9.2"/><rect x="21.7" y="0" transform="matrix(-0.7071 0.7071 -0.7071 -0.7071 43.6548 -8.8588)" fill="#E24F46" width="3.8" height="9.2"/><rect x="17.9" y="0" transform="matrix(-0.7071 -0.7071 0.7071 -0.7071 30.6447 21.9161)" fill="#E24F46" width="3.8" height="9.2"/><rect x="29.4" y="0" transform="matrix(-0.7071 0.7071 -0.7071 -0.7071 56.6715 -14.2505)" fill="#E24F46" width="3.8" height="9.2"/><rect x="25.6" y="0" transform="matrix(-0.7071 -0.7071 0.7071 -0.7071 43.6614 27.3078)" fill="#E24F46" width="3.8" height="9.2"/><rect x="52.4" y="0" transform="matrix(-0.7071 0.7071 -0.7071 -0.7071 95.9746 -30.5313)" fill="#FFFFFF" width="3.8" height="9.2"/><rect x="48.6" y="0" transform="matrix(-0.7071 -0.7071 0.7071 -0.7071 82.9652 43.587)" fill="#FFFFFF" width="3.8" height="9.2"/><rect x="60" y="0" transform="matrix(-0.7071 0.7071 -0.7071 -0.7071 108.9913 -35.923)" fill="#FFFFFF" width="3.8" height="9.2"/><rect x="56.2" y="0" transform="matrix(-0.7071 -0.7071 0.7071 -0.7071 95.9819 48.9787)" fill="#FFFFFF" width="3.8" height="9.2"/><rect x="67.6" y="0" transform="matrix(-0.7071 0.7071 -0.7071 -0.7071 122.008 -41.3147)" fill="#FFFFFF" width="3.8" height="9.2"/><rect x="63.8" y="0" transform="matrix(-0.7071 -0.7071 0.7071 -0.7071 108.9986 54.3704)" fill="#FFFFFF" width="3.8" height="9.2"/><rect x="75.3" y="0" transform="matrix(-0.7071 0.7071 -0.7071 -0.7071 135.0247 -46.7064)" fill="#FFFFFF" width="3.8" height="9.2"/><rect x="71.5" y="0" transform="matrix(-0.7071 -0.7071 0.7071 -0.7071 122.0153 59.7621)" fill="#FFFFFF" width="3.8" height="9.2"/></svg>