<?xml version="1.0" encoding="utf-8"?>
<!-- Generator: Adobe Illustrator 15.0.0, SVG Export Plug-In  -->
<!DOCTYPE svg PUBLIC "-//W3C//DTD SVG 1.1//EN" "http://www.w3.org/Graphics/SVG/1.1/DTD/svg11.dtd" [
	<!ENTITY ns_flows "http://ns.adobe.com/Flows/1.0/">
]>
<svg version="1.1"
	 xmlns="http://www.w3.org/2000/svg" xmlns:xlink="http://www.w3.org/1999/xlink" xmlns:a="http://ns.adobe.com/AdobeSVGViewerExtensions/3.0/"
	 x="0px" y="0px" width="496px" height="199px" viewBox="0 0 496 199" overflow="visible" enable-background="new 0 0 496 199"
	 xml:space="preserve">
<defs>
</defs>
<g>
	<rect y="9.72" fill="none" width="496.296" height="63.556"/>
	<path fill="#4D4D4D" d="M49.395,9.715h12.601v19.874h5.185L77.838,9.715h13.537L77.478,34.341v0.144l14.689,26.714H78.054
		L67.181,40.317h-5.185v20.882H49.395V9.715z"/>
	<path fill="#4D4D4D" d="M121.757,8.851c15.553,0,26.93,11.521,26.93,26.282c0,15.122-11.377,26.931-26.93,26.931
		c-15.554,0-26.931-11.809-26.931-26.931C94.826,20.372,106.203,8.851,121.757,8.851z M121.757,50.542
		c7.705,0,13.897-6.625,13.897-15.41c0-8.425-6.192-14.761-13.897-14.761s-13.897,6.336-13.897,14.761
		C107.859,43.918,114.052,50.542,121.757,50.542z"/>
	<path fill="#4D4D4D" d="M157.25,9.715h12.601v40.684h21.026v10.801H157.25V9.715z"/>
	<path fill="#4D4D4D" d="M196.633,9.715h12.601v32.547c0,5.4,3.528,8.281,8.929,8.281s8.929-2.88,8.929-8.281V9.715h12.601v32.547
		c0,11.593-8.497,19.802-21.458,19.802c-13.105,0-21.602-8.209-21.602-19.802V9.715z"/>
	<path fill="#4D4D4D" d="M253.729,9.715h13.681l7.489,21.746c1.152,3.312,2.592,8.497,2.592,8.497h0.145
		c0,0,1.439-5.185,2.592-8.497l7.488-21.746h13.682l4.177,51.484h-12.602l-1.584-23.186c-0.288-3.888,0-8.641,0-8.641h-0.145
		c0,0-1.728,5.4-2.88,8.641l-5.4,14.905h-10.801l-5.4-14.905c-1.152-3.24-2.881-8.641-2.881-8.641h-0.144c0,0,0.288,4.752,0,8.641
		l-1.584,23.186h-12.673L253.729,9.715z"/>
	<path fill="#4D4D4D" d="M316.081,9.715h18.938c10.297,0,17.497,4.608,17.497,13.465c0,4.321-2.088,8.713-5.977,10.945v0.144
		c5.905,1.8,8.065,7.057,8.065,11.593c0,11.233-9.361,15.337-19.586,15.337h-18.938V9.715z M335.162,29.661
		c3.169,0,4.537-2.304,4.537-4.752c0-2.376-1.368-4.393-4.753-4.393h-6.265v9.145H335.162z M336.242,50.398
		c3.673,0,5.473-2.521,5.473-5.4c0-2.88-1.729-5.257-5.4-5.257h-7.633v10.657H336.242z"/>
	<path fill="#4D4D4D" d="M362.808,9.715h12.602v32.547c0,5.4,3.528,8.281,8.929,8.281s8.929-2.88,8.929-8.281V9.715h12.602v32.547
		c0,11.593-8.497,19.802-21.458,19.802c-13.105,0-21.603-8.209-21.603-19.802V9.715z"/>
	<path fill="#4D4D4D" d="M420.047,45.142c0,0,5.833,5.329,12.313,5.329c2.592,0,5.4-1.008,5.4-4.104
		c0-6.12-23.186-5.904-23.186-21.746c0-9.505,7.992-15.77,18.217-15.77c11.089,0,16.562,5.833,16.562,5.833l-5.328,10.297
		c0,0-5.185-4.536-11.377-4.536c-2.593,0-5.473,1.152-5.473,4.032c0,6.48,23.187,5.329,23.187,21.602
		c0,8.568-6.553,15.985-18.146,15.985c-12.097,0-18.793-7.345-18.793-7.345L420.047,45.142z"/>
</g>
<line fill="#4D4D4D" stroke="#4D4D4D" stroke-miterlimit="10" x1="49.148" y1="81.775" x2="450.148" y2="81.775"/>
<g>
	<rect x="49.148" y="101.275" fill="none" width="401" height="23"/>
	<path fill="#4D4D4D" d="M170.29,104.495c-0.99-1.729-2.827-2.809-4.987-2.809c-3.259,0-5.816,2.358-5.816,5.888
		c0,3.475,2.557,5.888,5.816,5.888c2.305,0,4.267-1.243,5.221-3.169l0.685,0.198c-1.062,2.233-3.277,3.637-5.906,3.637
		c-3.619,0-6.536-2.755-6.536-6.554c0-3.799,2.917-6.554,6.536-6.554c2.466,0,4.591,1.278,5.726,3.277L170.29,104.495z"/>
	<path fill="#4D4D4D" d="M181.035,113.875l-3.187-5.06c-0.306,0.036-0.612,0.054-0.954,0.054h-2.701v5.005h-0.72v-12.604h3.421
		c2.845,0,4.555,1.44,4.555,3.799c0,1.854-1.044,3.115-2.845,3.601l3.259,5.204H181.035z M176.894,108.204
		c2.502,0,3.835-1.206,3.835-3.133c0-2.053-1.477-3.133-3.835-3.133h-2.701v6.266H176.894z"/>
	<path fill="#4D4D4D" d="M193.671,109.968h-7.814l-2.017,3.907h-0.756l6.518-12.604h0.324l6.518,12.604h-0.756L193.671,109.968z
		 M193.33,109.302l-3.457-6.698l-0.108-0.288l-0.108,0.288l-3.457,6.698H193.33z"/>
	<path fill="#4D4D4D" d="M199.285,101.938v5.149h5.78v0.667h-5.78v6.122h-0.72v-12.604h7.868v0.667H199.285z"/>
	<path fill="#4D4D4D" d="M217.323,101.271v0.667h-4.411v11.938h-0.72v-11.938h-4.393v-0.667H217.323z"/>
	<path fill="#4D4D4D" d="M219.625,113.875v-12.604h0.72v12.604H219.625z"/>
	<path fill="#4D4D4D" d="M234.099,101.271v12.604h-0.666l-8.301-11.073l-0.252-0.36l0.036,0.541v10.893h-0.72v-12.604h0.666
		l8.318,11.038l0.234,0.396l-0.036-0.558v-10.875H234.099z"/>
	<path fill="#4D4D4D" d="M248.265,111.571c-0.521,0.72-2.16,2.557-5.222,2.557c-3.619,0-6.536-2.755-6.536-6.554
		c0-3.799,2.917-6.554,6.536-6.554c2.683,0.09,4.646,1.369,5.726,3.277l-0.702,0.18c-0.99-1.729-2.862-2.791-5.023-2.791
		c-3.259,0-5.815,2.358-5.815,5.888c0,3.475,2.557,5.888,5.815,5.888c2.683,0,4.682-1.674,5.222-2.827v-2.305h-4.105v-0.667h4.754
		v6.248h-0.648V111.571z"/>
	<path fill="#4D4D4D" d="M270.478,101.271l-6.266,12.604h-0.433l-6.266-12.604h0.792l5.582,11.271l0.107,0.288l0.108-0.288
		l5.582-11.271H270.478z"/>
	<path fill="#4D4D4D" d="M277.479,101.02c3.619,0,6.554,2.755,6.554,6.554c0,3.799-2.935,6.554-6.554,6.554
		s-6.536-2.755-6.536-6.554C270.943,103.774,273.86,101.02,277.479,101.02z M277.479,113.461c3.241,0,5.834-2.413,5.834-5.888
		c0-3.529-2.593-5.888-5.834-5.888c-3.259,0-5.815,2.358-5.815,5.888C271.664,111.049,274.22,113.461,277.479,113.461z"/>
	<path fill="#4D4D4D" d="M294.689,101.271l-5.077,6.122v6.482h-0.721v-6.482l-5.077-6.122h0.846l4.376,5.24l0.216,0.324l0.216-0.324
		l4.375-5.24H294.689z"/>
	<path fill="#4D4D4D" d="M303.436,109.968h-7.814l-2.017,3.907h-0.756l6.518-12.604h0.324l6.518,12.604h-0.756L303.436,109.968z
		 M303.094,109.302l-3.457-6.698l-0.108-0.288l-0.107,0.288l-3.457,6.698H303.094z"/>
	<path fill="#4D4D4D" d="M318.431,111.571c-0.522,0.72-2.161,2.557-5.222,2.557c-3.619,0-6.536-2.755-6.536-6.554
		c0-3.799,2.917-6.554,6.536-6.554c2.683,0.09,4.646,1.369,5.726,3.277l-0.702,0.18c-0.99-1.729-2.863-2.791-5.023-2.791
		c-3.259,0-5.815,2.358-5.815,5.888c0,3.475,2.557,5.888,5.815,5.888c2.683,0,4.682-1.674,5.222-2.827v-2.305h-4.105v-0.667h4.753
		v6.248h-0.647V111.571z"/>
	<path fill="#4D4D4D" d="M330.112,113.209v0.666h-8.156v-12.604h8.048v0.667h-7.328v4.807h5.96v0.667h-5.96v5.798H330.112z"/>
	<path fill="#4D4D4D" d="M339.723,104.531c-0.27-1.765-1.746-2.881-3.655-2.881c-2.017,0-3.511,0.918-3.511,2.629
		c0,1.674,1.908,2.106,3.709,2.593c1.711,0.468,4.321,1.08,4.321,3.709c0,2.035-1.765,3.547-4.447,3.547
		c-2.736,0-4.357-1.656-4.537-3.673l0.666-0.18c0.108,1.747,1.477,3.205,3.871,3.205c2.269,0,3.728-1.225,3.728-2.899
		c0-2.233-2.665-2.755-4.376-3.223c-1.494-0.414-3.654-0.972-3.654-3.079c0-1.963,1.8-3.259,4.23-3.259
		c2.233,0,3.962,1.278,4.304,3.331L339.723,104.531z"/>
</g>
<rect x="237.294" y="147.192" transform="matrix(-0.7071 0.7071 -0.7071 -0.7071 515.6943 89.9862)" fill="#E24F46" width="3.834" height="9.209"/>
<rect x="233.493" y="147.192" transform="matrix(-0.7071 -0.7071 0.7071 -0.7071 294.5332 425.5924)" fill="#E24F46" width="3.834" height="9.208"/>
<rect x="244.919" y="147.192" transform="matrix(-0.7071 0.7071 -0.7071 -0.7071 528.7111 84.5945)" fill="#E24F46" width="3.834" height="9.209"/>
<rect x="241.118" y="147.192" transform="matrix(-0.7071 -0.7071 0.7071 -0.7071 307.5499 430.9841)" fill="#E24F46" width="3.834" height="9.208"/>
<rect x="252.544" y="147.192" transform="matrix(-0.7071 0.7071 -0.7071 -0.7071 541.7278 79.2028)" fill="#E24F46" width="3.834" height="9.209"/>
<rect x="248.743" y="147.192" transform="matrix(-0.7071 -0.7071 0.7071 -0.7071 320.5666 436.3758)" fill="#E24F46" width="3.834" height="9.208"/>
<rect x="260.169" y="147.192" transform="matrix(-0.7071 0.7071 -0.7071 -0.7071 554.7444 73.8111)" fill="#E24F46" width="3.834" height="9.209"/>
<rect x="256.368" y="147.192" transform="matrix(-0.7071 -0.7071 0.7071 -0.7071 333.5833 441.7675)" fill="#E24F46" width="3.834" height="9.208"/>
<g>
	<rect x="49.148" y="175.998" fill="none" width="401" height="23"/>
	<path fill="#4D4D4D" d="M226.556,176.002v8.396h-0.48V180.2h-5.301v4.198h-0.48v-8.396h0.48v3.754h5.301v-3.754H226.556z"/>
	<path fill="#4D4D4D" d="M235.028,181.795h-5.205l-1.343,2.604h-0.504l4.342-8.396h0.216l4.342,8.396h-0.504L235.028,181.795z
		 M234.8,181.352l-2.303-4.461l-0.072-0.192l-0.072,0.192l-2.303,4.461H234.8z"/>
	<path fill="#4D4D4D" d="M245.78,176.002v8.396h-0.48v-7.197l0.024-0.407l-0.18,0.407l-2.986,5.134h-0.24l-2.986-5.134l-0.18-0.383
		l0.024,0.383v7.197h-0.48v-8.396h0.444l3.203,5.506l0.096,0.216l0.096-0.216l3.202-5.506H245.78z"/>
	<path fill="#4D4D4D" d="M251.097,176.002c1.428,0,2.375,0.792,2.375,2.004c0,0.875-0.791,1.631-1.535,1.75
		c0.863,0,2.135,0.805,2.135,2.184c0,1.499-1.067,2.459-2.662,2.459h-3.227v-8.396H251.097z M251.026,179.576
		c1.199,0,1.979-0.623,1.979-1.57c0-0.96-0.779-1.56-1.979-1.56h-2.363v3.13H251.026z M251.41,183.954
		c1.223,0,2.194-0.731,2.194-1.967c0-1.14-1.056-1.967-2.278-1.967h-2.663v3.934H251.41z"/>
	<path fill="#4D4D4D" d="M262.399,176.002v5.037c0,2.184-1.151,3.539-3.382,3.539c-2.219,0-3.383-1.355-3.383-3.539v-5.037h0.48
		v5.074c0,1.895,0.983,3.059,2.902,3.059c1.931,0,2.902-1.164,2.902-3.059v-5.074H262.399z"/>
	<path fill="#4D4D4D" d="M269.479,184.398l-2.123-3.371c-0.203,0.024-0.407,0.037-0.635,0.037h-1.8v3.334h-0.479v-8.396h2.279
		c1.895,0,3.034,0.96,3.034,2.531c0,1.235-0.696,2.074-1.896,2.398l2.171,3.467H269.479z M266.721,180.62
		c1.667,0,2.554-0.804,2.554-2.087c0-1.367-0.983-2.087-2.554-2.087h-1.8v4.174H266.721z"/>
	<path fill="#4D4D4D" d="M279.042,182.863c-0.348,0.479-1.439,1.703-3.478,1.703c-2.411,0-4.354-1.836-4.354-4.366
		s1.942-4.366,4.354-4.366c1.787,0.061,3.094,0.912,3.813,2.184l-0.468,0.119c-0.659-1.15-1.907-1.858-3.346-1.858
		c-2.171,0-3.874,1.571-3.874,3.922c0,2.315,1.703,3.922,3.874,3.922c1.787,0,3.118-1.115,3.478-1.883v-1.535h-2.734v-0.444h3.166
		v4.162h-0.432V182.863z"/>
</g>
</svg>
