<svg xmlns="http://www.w3.org/2000/svg" xmlns:xlink="http://www.w3.org/1999/xlink" xmlns:a="http://ns.adobe.com/AdobeSVGViewerExtensions/3.0/" version="1.1" x="0px" y="0px" width="496px" height="199px" viewBox="0 0 496 199" overflow="visible" enable-background="new 0 0 496 199" xml:space="preserve"><defs></defs><rect y="9.7" fill="none" width="496.3" height="63.6"/><text transform="matrix(1 0 0 1 42.6987 61.1992)" fill="#4D4D4D" font-family="'MuseoSans-900'" font-size="72">KOLUMBUS</text><line fill="#4D4D4D" stroke="#4D4D4D" stroke-miterlimit="10" x1="49.1" y1="81.8" x2="450.1" y2="81.8"/><rect x="49.1" y="101.3" fill="none" width="401" height="23"/><text transform="matrix(1 0 0 1 155.0225 113.8755)" fill="#4D4D4D" font-family="'Novecento-LightWide'" font-size="18">Crafting Voyages</text><rect x="237.3" y="147.2" transform="matrix(-0.7071 0.7071 -0.7071 -0.7071 515.6943 89.9862)" fill="#E24F46" width="3.8" height="9.2"/><rect x="233.5" y="147.2" transform="matrix(-0.7071 -0.7071 0.7071 -0.7071 294.5332 425.5924)" fill="#E24F46" width="3.8" height="9.2"/><rect x="244.9" y="147.2" transform="matrix(-0.7071 0.7071 -0.7071 -0.7071 528.7111 84.5945)" fill="#E24F46" width="3.8" height="9.2"/><rect x="241.1" y="147.2" transform="matrix(-0.7071 -0.7071 0.7071 -0.7071 307.5499 430.9841)" fill="#E24F46" width="3.8" height="9.2"/><rect x="252.5" y="147.2" transform="matrix(-0.7071 0.7071 -0.7071 -0.7071 541.7278 79.2028)" fill="#E24F46" width="3.8" height="9.2"/><rect x="248.7" y="147.2" transform="matrix(-0.7071 -0.7071 0.7071 -0.7071 320.5666 436.3758)" fill="#E24F46" width="3.8" height="9.2"/><rect x="260.2" y="147.2" transform="matrix(-0.7071 0.7071 -0.7071 -0.7071 554.7444 73.8111)" fill="#E24F46" width="3.8" height="9.2"/><rect x="256.4" y="147.2" transform="matrix(-0.7071 -0.7071 0.7071 -0.7071 333.5833 441.7675)" fill="#E24F46" width="3.8" height="9.2"/><rect x="49.1" y="176" fill="none" width="401" height="23"/><text transform="matrix(1 0 0 1 219.0361 184.3984)" fill="#4D4D4D" font-family="'Novecento-LightWide'" font-size="12">HAMBURG</text></svg>