<!DOCTYPE svg PUBLIC "-//W3C//DTD SVG 1.1//EN" "http://www.w3.org/Graphics/SVG/1.1/DTD/svg11.dtd" [
	<!ENTITY ns_flows "http://ns.adobe.com/Flows/1.0/">
]><svg xmlns="http://www.w3.org/2000/svg" xmlns:xlink="http://www.w3.org/1999/xlink" width="600" height="424" viewBox="118 111.28 600 424" overflow="visible" enable-background="new 118 111.28 600 424"><text transform="translate(139.415 334.149)"><tspan x="0" y="0" fill="#353736" font-family="'MuseoSans-900'" font-size="92" letter-spacing="3">K</tspan><tspan x="67.15" y="0" fill="#353736" font-family="'MuseoSans-900'" font-size="92" letter-spacing="4">O</tspan><tspan x="146.995" y="0" fill="#353736" font-family="'MuseoSans-900'" font-size="92" letter-spacing="4">L</tspan><tspan x="202.837" y="0" fill="#353736" font-family="'MuseoSans-900'" font-size="92" letter-spacing="4">U</tspan><tspan x="276.033" y="0" fill="#353736" font-family="'MuseoSans-900'" font-size="92" letter-spacing="4">M</tspan><tspan x="363.602" y="0" fill="#353736" font-family="'MuseoSans-900'" font-size="92" letter-spacing="4">BU</tspan><tspan x="501.997" y="0" fill="#353736" font-family="'MuseoSans-900'" font-size="92">S</tspan></text><defs><rect id="a" x="2" width="841.89" height="595.28"/></defs><clipPath id="b"><use xlink:href="#a" overflow="visible"/></clipPath><polygon clip-path="url(#b)" fill="#88BDA7" points="447.598,224.112 419.585,238.283 391.819,224.112 387.067,182.594 419.585,170.78 452.35,182.594"/><path clip-path="url(#b)" fill="#fff" d="M415.233 183.986c.002-2.471 2.002-4.473 4.473-4.473s4.471 2.002 4.473 4.473c-.002 2.469-2.002 4.471-4.473 4.471s-4.471-2.001-4.473-4.471m2.217 0c.004 1.246 1.01 2.253 2.256 2.254 1.246-.001 2.254-1.008 2.256-2.254-.002-1.246-1.01-2.253-2.256-2.255-1.246.002-2.252 1.009-2.256 2.255"/><polygon clip-path="url(#b)" fill="#fff" points="434.745,211.627 430.419,211.627 432.583,208.591 434.745,205.554 436.909,208.591 439.071,211.627"/><polygon clip-path="url(#b)" fill="#fff" points="404.671,211.627 400.345,211.627 402.507,208.591 404.671,205.554 406.833,208.591 408.995,211.627"/><rect x="418.528" y="186.355" clip-path="url(#b)" fill="#fff" width="2.229" height="34.955"/><rect x="409.466" y="193.108" clip-path="url(#b)" fill="#fff" width="20.168" height="4.686"/><path clip-path="url(#b)" fill="#fff" d="M405.78 216.922c-2.195-3.264-2.459-6.439-2.473-6.544l2.209-.189.061.427c.051.295.137.726.283 1.246.295 1.043.826 2.438 1.76 3.816 1.887 2.745 5.25 5.505 12.056 5.531v2.218h-.08c-7.39 0-11.638-3.245-13.816-6.505"/><path clip-path="url(#b)" fill="#fff" d="M433.507 216.922c2.197-3.264 2.461-6.439 2.475-6.544l-2.209-.189-.061.427c-.051.295-.137.726-.283 1.246-.293 1.043-.826 2.438-1.76 3.816-1.887 2.745-5.248 5.505-12.057 5.531v2.218h.081c7.39 0 11.64-3.245 13.814-6.505"/><text transform="translate(316.349 397.295)"><tspan x="0" y="0" fill="#353736" font-family="'Novecentowide-Book'" font-size="18" letter-spacing="1">C</tspan><tspan x="14.976" y="0" fill="#353736" font-family="'Novecentowide-Book'" font-size="18" letter-spacing="1">R</tspan><tspan x="27.594" y="0" fill="#353736" font-family="'Novecentowide-Book'" font-size="18" letter-spacing="1">A</tspan><tspan x="42.875" y="0" fill="#353736" font-family="'Novecentowide-Book'" font-size="18" letter-spacing="1">F</tspan><tspan x="54.881" y="0" fill="#353736" font-family="'Novecentowide-Book'" font-size="18" letter-spacing="1">TING</tspan><tspan x="112.318" y="0" fill="#353736" font-family="'Novecentowide-Book'" font-size="18">V</tspan><tspan x="126.574" y="0" fill="#353736" font-family="'Novecentowide-Book'" font-size="18">O</tspan><tspan x="141.263" y="0" fill="#353736" font-family="'Novecentowide-Book'" font-size="18" letter-spacing="-1">Y</tspan><tspan x="151.918" y="0" fill="#353736" font-family="'Novecentowide-Book'" font-size="18">A</tspan><tspan x="166.517" y="0" fill="#353736" font-family="'Novecentowide-Book'" font-size="18" letter-spacing="1">G</tspan><tspan x="182.194" y="0" fill="#353736" font-family="'Novecentowide-Book'" font-size="18">E</tspan><tspan x="194.308" y="0" fill="#353736" font-family="'Novecentowide-Book'" font-size="18">S</tspan></text><text transform="translate(385.696 436.961)"><tspan x="0" y="0" fill="#353736" font-family="'Novecentowide-Book'" font-size="12">H</tspan><tspan x="9.588" y="0" fill="#353736" font-family="'Novecentowide-Book'" font-size="12">a</tspan><tspan x="19.776" y="0" fill="#353736" font-family="'Novecentowide-Book'" font-size="12">m</tspan><tspan x="30.612" y="0" fill="#353736" font-family="'Novecentowide-Book'" font-size="12">b</tspan><tspan x="39.24" y="0" fill="#353736" font-family="'Novecentowide-Book'" font-size="12">u</tspan><tspan x="48.768" y="0" fill="#353736" font-family="'Novecentowide-Book'" font-size="12">r</tspan><tspan x="57.144" y="0" fill="#353736" font-family="'Novecentowide-Book'" font-size="12">g</tspan></text><defs><rect id="c" width="841.89" height="595.28"/></defs><clipPath id="d"><use xlink:href="#c" overflow="visible"/></clipPath><line clip-path="url(#d)" stroke="#88BDA7" stroke-width="3.997" stroke-miterlimit="10" x1="145.188" y1="352.613" x2="689.824" y2="352.613" fill="none"/></svg>